<svg width="40" height="40" viewBox="0 0 40 40" fill="none" xmlns="http://www.w3.org/2000/svg">
<path d="M6.46509 5.90245C5.41909 6.11306 4.56966 6.58341 3.76937 7.37668C2.94099 8.20505 2.49873 9.04045 2.28812 10.1566C2.19686 10.613 2.18282 11.2448 2.20388 13.5754C2.23196 16.3343 2.23898 16.4467 2.39342 16.924C2.66019 17.7384 3.0814 18.4685 3.6079 19.0301C4.38714 19.8655 5.21551 20.3569 6.29661 20.6166C6.82312 20.743 7.16008 20.75 11.6319 20.75C16.2722 20.75 16.4126 20.743 16.6372 20.6096C16.7636 20.5324 16.9251 20.3709 17.0023 20.2446C17.1357 20.0199 17.1427 19.8795 17.1427 15.2392C17.1427 10.7674 17.1357 10.4304 17.0093 9.90392C16.7496 8.82282 16.2582 7.99445 15.4228 7.21522C14.8612 6.68871 14.1311 6.2675 13.3167 6.00074C12.8394 5.83927 12.7411 5.83927 9.87687 5.82523C7.61639 5.81119 6.8161 5.82523 6.46509 5.90245ZM12.383 8.05061C13.5835 8.30333 14.5523 9.21595 14.8612 10.3953C14.9524 10.7463 14.9665 11.4343 14.9665 14.6916V18.5738H11.0843C7.82699 18.5738 7.13902 18.5597 6.78802 18.4685C5.58758 18.1526 4.66092 17.1627 4.4433 15.9482C4.34502 15.4007 4.338 11.1535 4.4433 10.613C4.56264 9.9671 4.83642 9.46165 5.34889 8.94918C5.8403 8.45778 6.27555 8.21207 6.89332 8.07167C7.40579 7.95935 11.8565 7.93829 12.383 8.05061Z" fill="#212B36"/>
<path d="M23.6306 5.87437C23.0971 5.96564 22.3108 6.2675 21.7562 6.59745C21.0472 7.01865 20.1907 7.93829 19.8257 8.68242C19.236 9.86882 19.25 9.74246 19.25 15.1971C19.25 19.8795 19.257 20.0199 19.3904 20.2446C19.4677 20.3709 19.6291 20.5324 19.7555 20.6096C19.9801 20.743 20.1205 20.75 24.7608 20.75C29.2326 20.75 29.5696 20.743 30.0961 20.6166C31.1772 20.3569 32.0056 19.8655 32.7848 19.0301C33.3113 18.4685 33.7325 17.7384 33.9993 16.924C34.1537 16.4467 34.1608 16.3343 34.1888 13.5754C34.2099 11.2448 34.1959 10.613 34.1046 10.1566C33.894 9.04045 33.4517 8.20505 32.6233 7.37668C32.0337 6.78699 31.5423 6.45704 30.8332 6.16922C29.9978 5.83225 29.5626 5.79715 26.6703 5.80417C25.1961 5.81119 23.8271 5.83927 23.6306 5.87437ZM29.4011 8.05061C30.4892 8.25419 31.3878 9.01939 31.8231 10.1145C31.9845 10.5217 31.9915 10.5989 32.0126 12.9858C32.0266 14.6144 32.0126 15.5972 31.9564 15.8991C31.7388 17.1487 30.8262 18.1455 29.6047 18.4685C29.2537 18.5597 28.5657 18.5738 25.3084 18.5738H21.4263V14.6916C21.4263 11.4343 21.4403 10.7463 21.5316 10.3953C21.8334 9.25105 22.746 8.35247 23.9044 8.07167C24.3817 7.95935 28.8044 7.93829 29.4011 8.05061Z" fill="#FE9F43"/>
<path d="M6.26151 22.9977C5.57354 23.1662 5.15233 23.3557 4.56966 23.7418C3.58684 24.3947 2.79357 25.4618 2.39342 26.6833C2.23898 27.1606 2.23196 27.273 2.20388 30.0319C2.18282 32.3625 2.19686 32.9944 2.28812 33.4507C2.49873 34.5669 2.94099 35.4023 3.76937 36.2306C4.59774 37.059 5.43313 37.5013 6.54933 37.7119C7.00564 37.8031 7.63745 37.8172 9.96813 37.7961C12.727 37.768 12.8394 37.761 13.3167 37.6066C14.1311 37.3398 14.8612 36.9186 15.4228 36.3921C16.2582 35.6129 16.7496 34.7845 17.0093 33.7034C17.1357 33.1769 17.1427 32.8399 17.1427 28.3681C17.1427 23.7278 17.1357 23.5874 17.0023 23.3628C16.9251 23.2364 16.7636 23.0749 16.6372 22.9977C16.4126 22.8643 16.2792 22.8573 11.5968 22.8643C7.16008 22.8643 6.7459 22.8784 6.26151 22.9977ZM14.9665 28.9157C14.9665 32.173 14.9524 32.861 14.8612 33.212C14.5382 34.4335 13.5414 35.3461 12.2918 35.5637C11.9899 35.6199 11.0071 35.6339 9.37844 35.6199C6.99862 35.5988 6.91438 35.5918 6.50721 35.4303C5.58056 35.0653 4.94173 34.4265 4.56966 33.4928C4.4082 33.0856 4.40118 33.0084 4.38012 30.5794C4.36608 28.8806 4.38012 27.9539 4.43628 27.6661C4.67496 26.4516 5.58056 25.4618 6.75994 25.1459C7.06882 25.0616 7.86209 25.0406 11.0562 25.0406L14.9665 25.0335V28.9157Z" fill="#FE9F43"/>
<path d="M19.7554 22.9977C19.6291 23.0749 19.4676 23.2364 19.3904 23.3628C19.257 23.5874 19.25 23.7278 19.25 28.3681C19.25 32.8399 19.257 33.1769 19.3834 33.7034C19.6431 34.7845 20.1345 35.6129 20.9699 36.3921C21.5315 36.9186 22.2616 37.3398 23.076 37.6066C23.5533 37.761 23.6657 37.768 26.4246 37.7961C28.7552 37.8172 29.387 37.8031 29.8434 37.7119C30.9596 37.5013 31.7949 37.059 32.6233 36.2306C33.4517 35.4023 33.894 34.5669 34.1046 33.4507C34.1958 32.9944 34.2099 32.3555 34.1888 30.0319L34.1677 27.1747L33.9431 26.5359C33.6202 25.6022 33.22 24.9774 32.511 24.3035C31.816 23.6436 31.0649 23.2224 30.1733 22.9977C29.6468 22.8643 29.373 22.8573 24.8029 22.8573C20.1205 22.8573 19.9801 22.8643 19.7554 22.9977ZM29.6047 25.1388C30.8121 25.4548 31.7388 26.4657 31.9564 27.7082C32.0126 28.0101 32.0266 28.9929 32.0126 30.6216C31.9915 33.0014 31.9845 33.0856 31.823 33.4928C31.458 34.4194 30.77 35.1074 29.8644 35.4444C29.4923 35.5848 29.3098 35.5918 26.9721 35.6199C25.2662 35.6339 24.3466 35.6199 24.0588 35.5637C22.8303 35.325 21.8474 34.4124 21.5315 33.212C21.4403 32.861 21.4262 32.173 21.4262 28.9157V25.0335H25.3084C28.5657 25.0335 29.2537 25.0476 29.6047 25.1388Z" fill="#212B36"/>
</svg>
