<svg width="20" height="21" viewBox="0 0 20 21" fill="none" xmlns="http://www.w3.org/2000/svg">
<circle cx="10" cy="10.1172" r="9.5" stroke="#6927DA"/>
<path d="M16.7194 3.39916C17.6975 4.37732 17.9729 5.9995 17.4721 7.94702C16.9744 9.88191 15.7271 12.0412 13.8268 13.9415C11.9264 15.8419 9.76712 17.0892 7.83223 17.5869C5.88471 18.0877 4.26253 17.8123 3.28437 16.8342C2.30622 15.856 2.03089 14.2339 2.53169 12.2863C3.0293 10.3514 4.27661 8.19222 6.17702 6.29181C8.07742 4.3914 10.2366 3.1441 12.1715 2.64648C14.1191 2.14568 15.7412 2.42101 16.7194 3.39916Z" stroke="#6927DA"/>
<path d="M3.28197 3.39388C4.26014 2.41578 5.88231 2.14041 7.82983 2.6412C9.76473 3.13883 11.924 4.38615 13.8244 6.28653C15.7247 8.18691 16.9721 10.3462 17.4697 12.2811C17.9705 14.2286 17.6951 15.8507 16.717 16.8289C15.7388 17.8071 14.1167 18.0824 12.1691 17.5816C10.2342 17.084 8.07503 15.8367 6.17462 13.9363C4.27421 12.0359 3.02691 9.87666 2.52929 7.94174C2.02849 5.99418 2.30382 4.37204 3.28197 3.39388Z" stroke="#6927DA"/>
</svg>
