<svg width="20" height="20" viewBox="0 0 20 20" fill="none" xmlns="http://www.w3.org/2000/svg">
<g clip-path="url(#clip0_47_5252)">
<path d="M12.3965 0.967203L10.478 0.453125L8.86119 6.48706L7.40153 1.03958L5.48294 1.55366L7.06001 7.43926L3.1319 3.51116L1.72741 4.91565L6.03606 9.22433L0.670327 7.78657L0.15625 9.70511L6.01899 11.276C5.95187 10.9865 5.91636 10.6849 5.91636 10.3749C5.91636 8.18096 7.69489 6.40243 9.88884 6.40243C12.0828 6.40243 13.8613 8.18096 13.8613 10.3749C13.8613 10.6829 13.8263 10.9827 13.76 11.2705L19.0881 12.6981L19.6022 10.7796L13.7161 9.20243L19.0822 7.76457L18.5681 5.84604L12.6823 7.42311L16.6104 3.49504L15.2059 2.09055L10.957 6.33945L12.3965 0.967203Z" fill="#FF4405"/>
<path d="M13.7544 11.2928C13.5899 11.9882 13.2426 12.613 12.7661 13.1135L16.6261 16.9735L18.0306 15.5691L13.7544 11.2928Z" fill="#FF4405"/>
<path d="M12.7271 13.1539C12.2449 13.6464 11.6355 14.014 10.9521 14.2034L12.3567 19.4453L14.2752 18.9312L12.7271 13.1539Z" fill="#FF4405"/>
<path d="M10.8804 14.2225C10.5633 14.3041 10.231 14.3474 9.88851 14.3474C9.52158 14.3474 9.16627 14.2976 8.82895 14.2045L7.4231 19.4512L9.34163 19.9653L10.8804 14.2225Z" fill="#FF4405"/>
<path d="M8.76111 14.1852C8.08814 13.9863 7.48955 13.6141 7.01716 13.1201L3.14766 16.9896L4.55214 18.3941L8.76111 14.1852Z" fill="#FF4405"/>
<path d="M6.98527 13.0859C6.52098 12.5889 6.18279 11.9725 6.02181 11.2878L0.67627 12.7201L1.19034 14.6387L6.98527 13.0859Z" fill="#FF4405"/>
</g>
<defs>
<clipPath id="clip0_47_5252">
<rect width="20" height="20" fill="white"/>
</clipPath>
</defs>
</svg>
