<svg width="157" height="153" viewBox="0 0 157 153" fill="none" xmlns="http://www.w3.org/2000/svg">
<path d="M153.977 102.729C155.988 103.643 156.887 106.019 155.877 107.984C150.551 118.349 143.08 127.483 133.946 134.769C123.768 142.888 111.814 148.482 99.0591 151.095C86.3047 153.709 73.1129 153.266 60.5623 149.804C48.0117 146.342 36.4586 139.959 26.8476 131.176C17.2366 122.394 9.84065 111.461 5.26439 99.2729C0.688131 87.0843 -0.938482 73.9857 0.517544 61.048C1.97357 48.1103 6.47089 35.7009 13.6418 24.8344C20.0773 15.0822 28.5022 6.82122 38.3467 0.584144C40.2128 -0.598164 42.6603 0.0835304 43.7507 2.00477L56.0913 23.7467C57.1817 25.6679 56.4974 28.0963 54.6705 29.3383C49.3366 32.9644 44.7517 37.6057 41.1851 43.0104C36.8825 49.5303 34.1841 56.976 33.3105 64.7386C32.4369 72.5012 33.4129 80.3603 36.1586 87.6735C38.9044 94.9866 43.342 101.546 49.1086 106.816C54.8751 112.085 61.807 115.915 69.3374 117.992C76.8678 120.069 84.7828 120.335 92.4355 118.767C100.088 117.199 107.261 113.842 113.368 108.971C118.43 104.933 122.64 99.9494 125.772 94.3112C126.845 92.38 129.202 91.4801 131.213 92.3935L153.977 102.729Z" fill="#FCB16F"/>
</svg>
