<svg width="106" height="106" viewBox="0 0 106 106" fill="none" xmlns="http://www.w3.org/2000/svg">
<path d="M105.331 52.6657C105.331 81.7521 81.7521 105.331 52.6657 105.331C23.5792 105.331 0 81.7521 0 52.6657C0 23.5792 23.5792 0 52.6657 0C81.7521 0 105.331 23.5792 105.331 52.6657ZM7.60492 52.6657C7.60492 77.552 27.7793 97.7264 52.6657 97.7264C77.552 97.7264 97.7264 77.552 97.7264 52.6657C97.7264 27.7793 77.552 7.60492 52.6657 7.60492C27.7793 7.60492 7.60492 27.7793 7.60492 52.6657Z" fill="#E6EAED"/>
<path d="M52.6657 3.80246C52.6657 1.70242 54.3704 -0.0142902 56.4649 0.137188C65.5436 0.793754 74.3208 3.79474 81.9251 8.87576C90.586 14.6627 97.3363 22.888 101.322 32.5114C105.309 42.1348 106.351 52.7241 104.319 62.9402C102.287 73.1564 97.2713 82.5405 89.9059 89.9059C82.5405 97.2713 73.1564 102.287 62.9402 104.319C52.7241 106.351 42.1348 105.309 32.5114 101.322C22.888 97.3363 14.6627 90.586 8.87576 81.9251C3.79474 74.3208 0.793753 65.5436 0.137188 56.4649C-0.0142902 54.3703 1.70242 52.6657 3.80246 52.6657C5.9025 52.6657 7.58825 54.3712 7.76525 56.4638C8.40578 64.0366 10.9539 71.3468 15.199 77.7001C20.1504 85.1103 27.1879 90.8858 35.4217 94.2964C43.6554 97.7069 52.7156 98.5993 61.4566 96.8606C70.1975 95.1219 78.2266 90.8303 84.5284 84.5284C90.8303 78.2266 95.1219 70.1975 96.8606 61.4566C98.5993 52.7157 97.7069 43.6554 94.2964 35.4217C90.8858 27.1879 85.1103 20.1504 77.7001 15.199C71.3468 10.9539 64.0366 8.40578 56.4638 7.76525C54.3712 7.58825 52.6657 5.9025 52.6657 3.80246Z" fill="#E48F44"/>
<path d="M87.7766 52.6656C87.7766 72.0566 72.0571 87.7761 52.6661 87.7761C33.2751 87.7761 17.5557 72.0566 17.5557 52.6656C17.5557 33.2747 33.2751 17.5552 52.6661 17.5552C72.0571 17.5552 87.7766 33.2747 87.7766 52.6656ZM24.7498 52.6656C24.7498 68.0834 37.2484 80.5819 52.6661 80.5819C68.0839 80.5819 80.5824 68.0834 80.5824 52.6656C80.5824 37.2479 68.0839 24.7493 52.6661 24.7493C37.2484 24.7493 24.7498 37.2479 24.7498 52.6656Z" fill="#E6EAED"/>
<path d="M63.4443 23.0527C64.1238 21.1859 66.1984 20.2069 67.9859 21.0737C72.1752 23.1053 75.9299 25.9554 79.0219 29.4683C82.9082 33.8838 85.623 39.205 86.9168 44.9431C88.2105 50.6813 88.0419 56.6526 86.4264 62.3086C84.8108 67.9646 81.8002 73.1241 77.6708 77.3133C73.5415 81.5025 68.4258 84.587 62.7936 86.2837C57.1614 87.9804 51.1932 88.2349 45.437 87.0238C39.6808 85.8127 34.3211 83.1747 29.8502 79.3523C26.2932 76.3112 23.3894 72.5978 21.2978 68.4382C20.4054 66.6633 21.3544 64.5748 23.2113 63.8686C25.0681 63.1623 27.1259 64.1097 28.0649 65.8604C29.697 68.9034 31.8848 71.6267 34.5252 73.8842C38.08 76.9234 42.3415 79.0208 46.9182 79.9838C51.495 80.9468 56.2403 80.7444 60.7185 79.3954C65.1967 78.0463 69.2641 75.5938 72.5474 72.263C75.8306 68.9322 78.2244 64.8299 79.5089 60.3328C80.7934 55.8357 80.9275 51.0879 79.8988 46.5255C78.8701 41.963 76.7116 37.7322 73.6216 34.2214C71.3264 31.6137 68.5719 29.4654 65.5057 27.8772C63.7417 26.9635 62.7649 24.9195 63.4443 23.0527Z" fill="#22CF48"/>
</svg>
